<svg xmlns="http://www.w3.org/2000/svg" viewBox="0 0 512 512" height="512" width="512"><g style="fill: var(--icon-fill, #fff); touch-action: none;"><path d="M256 96c-79 0-150 41-192 104 11 17 26 32 43 44-6-8-10-16-11-25 36-52 95-87 160-87s124 35 160 87c-1 9-5 17-11 25 17-12 32-27 43-44-42-63-113-104-192-104zm0 64c-66 0-120 54-120 120s54 120 120 120 120-54 120-120-54-120-120-120zm0 64c31 0 56 25 56 56s-25 56-56 56-56-25-56-56 25-56 56-56zm-32 56a16 16 0 1 0 32 0 16 16 0 0 0-32 0zm32 152c-12 0-24 6-32 16h64c-8-10-20-16-32-16z"/></g></svg>
