<svg xmlns="http://www.w3.org/2000/svg" viewBox="0 0 512 512" height="512" width="512"><g style="fill: var(--icon-fill, #fff); touch-action: none;"><path d="M256 48C142 48 48 142 48 256s94 208 208 208 208-94 208-208S370 48 256 48zm0 32c97 0 176 79 176 176s-79 176-176 176-176-79-176-176S159 80 256 80zm0 32c-13 0-24 11-24 24v120c0 6 3 13 7 17l72 72c10 10 24 10 34 0s10-24 0-34l-65-65V136c0-13-11-24-24-24zm-16-80c-13 0-24 11-24 24s11 24 24 24h32c13 0 24-11 24-24s-11-24-24-24h-32zm-96 32c-13 0-24 11-24 24s11 24 24 24h16c13 0 24-11 24-24s-11-24-24-24h-16zm192 0c-13 0-24 11-24 24s11 24 24 24h16c13 0 24-11 24-24s-11-24-24-24h-16z"/></g></svg>
